<svg width="406" height="306" viewBox="0 0 406 306" fill="none" xmlns="http://www.w3.org/2000/svg">
<g clip-path="url(#clip0)">
<path opacity="0.18" d="M406 171.647C405.683 177.117 403.637 182.379 401.624 187.488C389.503 217.43 372.283 249.298 341.696 259.691C317.103 268.049 297.05 257.601 273.015 255.621C254.002 254.035 229.562 255.829 211.336 261.715C188.363 269.132 169.13 285.006 146.146 292.456C120.678 300.726 91.8511 301.208 65.8033 295.65C59.2394 294.25 52.5989 292.368 46.9977 288.638C40.4338 284.262 35.8172 277.698 31.4193 271.233C13.7843 245.414 -2.89901 215.942 0.426711 184.917C1.80513 171.942 6.56397 159.985 13.4561 149.067C24.3194 131.848 40.5103 117.188 57.2155 105.1C84.4667 85.3534 115.055 68.9983 136.125 42.7426C142.59 34.6909 148.224 25.6546 156.714 19.7689C166.767 12.7893 179.49 11.1921 191.721 9.79179C208.634 7.85543 225.635 5.91908 242.69 6.83803C258.5 7.74357 274.056 11.2207 288.747 17.1324C327.113 32.4482 359.484 63.1783 374.887 101.599C377.71 108.59 380.007 115.821 383.07 122.724C384 124.912 385.006 126.936 386.133 128.971C393.78 142.996 406.842 155.708 406 171.647Z" fill="#E7D1D1"/>
<path opacity="0.18" d="M406 171.647C405.683 177.117 403.637 182.379 401.624 187.488C389.503 217.43 372.283 249.298 341.696 259.691C317.103 268.049 297.05 257.601 273.015 255.621C254.002 254.035 229.562 255.829 211.336 261.715C188.363 269.132 169.13 285.006 146.146 292.456C120.678 300.726 91.8511 301.208 65.8033 295.65C59.2394 294.25 52.5989 292.368 46.9977 288.638C40.4338 284.262 35.8172 277.698 31.4193 271.233C13.7843 245.414 -2.89901 215.942 0.426711 184.917C1.80513 171.942 6.56397 159.985 13.4561 149.067C24.024 146.223 36.0141 146.277 46.4069 145.074C158.103 132.198 270.991 119.322 383.004 122.757C383.934 124.945 384.941 126.969 386.068 129.003C393.78 142.995 406.842 155.708 406 171.647Z" fill="#E7D1D1"/>
<path opacity="0.18" d="M228.534 235.897C303.067 235.897 363.488 214.605 363.488 188.341C363.488 162.077 303.067 140.786 228.534 140.786C154.001 140.786 93.5796 162.077 93.5796 188.341C93.5796 214.605 154.001 235.897 228.534 235.897Z" fill="#E7D1D1"/>
<path d="M204.718 235.897C279.251 235.897 339.672 214.605 339.672 188.341C339.672 162.077 279.251 140.786 204.718 140.786C130.184 140.786 69.7634 162.077 69.7634 188.341C69.7634 214.605 130.184 235.897 204.718 235.897Z" fill="white"/>
<path d="M339.672 188.341C339.642 191.482 338.818 194.565 337.276 197.301C325.362 219.279 270.543 235.886 204.707 235.886C130.184 235.886 69.7634 214.608 69.7634 188.341C69.7634 162.075 130.184 140.786 204.707 140.786C258.312 140.786 304.522 151.725 326.336 167.698C334.891 173.944 339.672 180.935 339.672 188.341Z" fill="url(#paint0_linear)"/>
<path d="M204.718 226.86C279.251 226.86 339.672 205.569 339.672 179.305C339.672 153.041 279.251 131.749 204.718 131.749C130.184 131.749 69.7634 153.041 69.7634 179.305C69.7634 205.569 130.184 226.86 204.718 226.86Z" fill="white"/>
<path d="M339.672 188.341C339.642 191.482 338.818 194.565 337.276 197.301C336.891 197.113 336.551 196.845 336.28 196.513C335.088 195.233 333.895 193.942 332.692 192.662C331.658 193.499 330.452 194.096 329.16 194.412C327.869 194.728 326.523 194.754 325.22 194.489C322.614 193.942 320.144 192.878 317.956 191.361C315.921 190.037 313.974 188.56 311.928 187.236C307.975 184.651 303.687 182.62 299.183 181.197C300.037 181.197 299.369 179.775 298.56 179.425L279.962 171.45C282.73 169.497 285.851 168.1 289.151 167.337C288.716 167.388 288.274 167.339 287.86 167.195C287.446 167.051 287.069 166.815 286.76 166.504C286.45 166.193 286.215 165.816 286.072 165.401C285.929 164.987 285.882 164.545 285.935 164.109C286.274 162.293 288.397 161.298 290.245 161.462C292.069 161.811 293.807 162.51 295.365 163.519C302.057 167.022 309.669 168.371 317.157 167.38C320.212 166.889 323.333 166.997 326.347 167.698C334.891 173.944 339.672 180.935 339.672 188.341Z" fill="url(#paint1_linear)"/>
<path d="M270.915 187.838C270.568 184.709 269.356 181.739 267.414 179.261L289.84 166.133C291.241 165.302 292.827 164.142 292.707 162.512C292.585 161.728 292.222 161.001 291.667 160.434C288.67 156.9 284.185 155.062 279.885 153.356L263.158 146.726C261.602 146.009 259.939 145.55 258.235 145.369C255.763 145.238 253.411 146.267 251.157 147.262C228.213 157.473 205.348 167.865 182.564 178.441C177.72 180.555 173.024 182.993 168.507 185.738C164.032 188.593 159.941 191.995 155.51 194.905C152.589 196.82 146.911 198.461 145.555 201.764C155.226 203.121 166.559 201.141 176.35 200.463C187.035 199.733 197.709 198.763 208.371 197.553C213.666 196.918 271.111 189.61 270.915 187.838Z" fill="url(#paint2_linear)"/>
<path d="M266.199 177.478C266.241 178.715 265.978 179.944 265.434 181.055C264.785 182.033 263.886 182.819 262.83 183.331C256.463 186.832 248.663 185.628 241.454 186.613C232.089 187.827 223.042 191.24 213.765 192.805C203.033 194.621 192.706 197.181 181.733 197.181C175.782 197.181 169.787 196.579 163.901 197.421C157.392 198.351 151.265 201.01 145.237 203.635C145.446 193.429 144.133 183.249 141.343 173.43C140.501 170.455 139.625 166.921 141.605 164.547C138.324 160.652 133.948 153.082 134.856 147.667C135.895 141.551 141.988 143.739 147.819 142.645C160.706 140.293 172.718 134.703 185.015 130.338C192.345 127.734 199.751 130.885 207.277 128.916C217.856 126.148 226.182 120.744 237.056 119.551C240.458 119.179 244.101 118.687 247.142 117.013C248.608 116.204 254.68 117.889 256.222 118.315C259.012 119.07 258.793 133.139 259.373 136.311C261.856 149.964 266.736 163.431 266.199 177.478Z" fill="#E7D1D1"/>
<path d="M266.199 177.478C266.237 178.715 265.974 179.942 265.434 181.055C264.787 182.032 263.887 182.815 262.83 183.32C256.452 186.821 248.663 185.628 241.453 186.602C232.089 187.827 223.042 191.229 213.765 192.805C203.033 194.61 192.705 197.181 181.722 197.181C175.771 197.181 169.797 196.579 163.901 197.432C157.392 198.351 151.265 201.01 145.237 203.635C145.316 199.838 145.181 196.04 144.833 192.258C144.526 188.855 144.056 185.453 143.41 182.084C142.842 179.174 142.163 176.285 141.343 173.43C141.244 173.069 141.146 172.697 141.037 172.336C140.325 169.634 139.866 166.658 141.594 164.58C140.379 163.123 139.282 161.572 138.313 159.941C136.037 156.091 134.199 151.386 134.845 147.689C135.939 141.606 141.988 143.718 147.776 142.656C160.663 140.304 172.686 134.714 184.971 130.349C192.301 127.745 199.707 130.896 207.223 128.938C217.802 126.17 226.138 120.755 237.012 119.551C240.414 119.19 244.068 118.698 247.098 117.024C248.564 116.204 254.636 117.91 256.168 118.326C258.607 118.972 258.76 129.704 259.132 134.572C259.172 135.158 259.241 135.743 259.34 136.322C260.172 140.862 261.266 145.369 262.349 149.888C263.038 152.798 263.727 155.708 264.307 158.639C265.087 162.388 265.643 166.18 265.97 169.995C266.2 172.482 266.277 174.981 266.199 177.478Z" fill="url(#paint3_linear)"/>
<path opacity="0.43" d="M262.338 149.855C251.547 152.612 240.447 153.968 229.31 153.892C224.092 153.892 218.841 153.498 213.644 154.078C207.671 154.734 201.906 156.605 196.141 158.454L177.948 164.405C173.149 166.063 168.267 167.469 163.321 168.617C160.597 169.207 157.851 169.645 155.061 170.072L140.993 172.26C140.282 169.557 139.822 166.582 141.551 164.503C140.335 163.047 139.238 161.496 138.269 159.865C141.977 159.044 145.828 159.591 149.613 159.865C158.537 160.481 167.499 159.499 176.077 156.966C179.359 155.992 182.641 154.778 185.813 153.596L207.048 145.687C217.276 141.891 229.507 141.902 240.25 140.009C244.304 139.472 248.292 138.522 252.153 137.175C254.398 136.112 256.729 135.241 259.121 134.572C259.161 135.158 259.23 135.743 259.329 136.322C260.161 140.829 261.255 145.337 262.338 149.855Z" fill="#E7D1D1"/>
<path d="M132.679 145.555C145.577 147.361 158.727 144.79 171.187 141.004C183.648 137.219 195.758 132.253 208.383 128.971C223.469 125.076 239.2 123.687 253.86 118.436C254.864 118.174 255.776 117.64 256.496 116.893C257.008 116.167 257.318 115.317 257.393 114.432C258.695 105.888 253.674 97.3654 246.836 92.0814C239.999 86.7974 231.52 84.1391 223.294 81.5573L213.338 78.4503C205.287 75.9451 201.676 78.5816 196.382 83.9203C189.489 90.9218 182.225 97.606 175.169 104.443L153.924 124.978L142.984 135.578C141.562 136.968 134.287 145.774 132.679 145.555Z" fill="#E7D1D1"/>
<path d="M231.334 120.766C233.522 120.35 236.148 120.076 237.581 121.772C237.966 122.266 238.259 122.826 238.445 123.424C240.042 127.866 239.539 132.789 240.535 137.416C240.548 137.578 240.598 137.734 240.679 137.874C240.76 138.014 240.872 138.134 241.005 138.226C241.187 138.28 241.381 138.28 241.563 138.226C242.202 137.966 242.738 137.505 243.092 136.913C243.445 136.321 243.596 135.629 243.521 134.944C243.324 133.563 242.918 132.221 242.318 130.962C241.438 128.95 241.321 126.686 241.99 124.595C242.176 124.124 242.602 123.599 243.084 123.785C243.565 123.971 243.499 124.748 243.828 125.174C244.298 125.776 245.293 125.426 245.819 124.879C246.344 124.332 246.77 123.577 247.503 123.391C247.85 123.337 248.205 123.385 248.526 123.529C248.846 123.672 249.118 123.906 249.308 124.201C249.688 124.793 249.93 125.462 250.02 126.159C251.398 132.887 251.573 139.954 254.264 146.277C254.33 146.459 254.431 146.626 254.56 146.77C254.712 146.89 254.889 146.974 255.079 147.016C255.268 147.058 255.465 147.056 255.654 147.01C257.842 146.638 259.034 144.089 258.815 141.891C258.596 139.692 257.349 137.755 256.31 135.808C254.124 131.77 252.801 127.322 252.426 122.746C252.345 122.108 252.397 121.459 252.579 120.842C252.845 120.219 253.215 119.646 253.673 119.147C255.142 117.283 256.167 115.109 256.671 112.791C253.87 115.471 249.68 115.908 245.83 116.204C241.979 116.499 237.778 116.926 234.977 119.595" fill="#E7D1D1"/>
<path d="M234.015 87.8149C235.427 88.1382 236.674 88.9621 237.526 90.1341C237.931 90.889 237.986 91.786 238.347 92.5737C239.189 94.4554 241.388 95.1993 243.226 96.1292C249.724 99.4111 251.114 105.844 253.4 112.101C253.889 113.231 254.174 114.439 254.242 115.668C254.242 118.611 251.912 121.138 251.628 124.026C251.549 125.448 251.765 126.87 252.262 128.205C253.272 131.289 254.788 134.184 256.748 136.771C257.459 137.629 258.099 138.543 258.662 139.506C259.239 140.497 259.422 141.668 259.176 142.788C258.981 143.481 258.568 144.094 257.999 144.537C257.431 144.98 256.735 145.23 256.015 145.249C255.63 145.276 255.247 145.18 254.921 144.976C254.685 144.785 254.488 144.551 254.341 144.286C251.781 140.064 252.043 134.78 252.295 129.846C252.579 124.31 252.722 118.578 250.687 113.436C250.438 112.571 250.016 111.767 249.446 111.071C248.876 110.375 248.171 109.802 247.372 109.388C246.19 109.068 244.962 108.949 243.74 109.038C242.778 108.852 241.834 108.585 240.918 108.24C239.988 108.075 239.452 108.765 238.73 109.465C237.395 110.876 236.388 112.572 234.923 113.841C231.641 116.696 226.969 116.991 222.648 117.342C217.731 117.75 212.838 118.411 207.989 119.322C207.453 119.431 206.785 119.683 206.796 120.23C206.807 120.777 207.89 120.35 207.453 120.098C201.279 123.43 194.641 125.819 187.761 127.187C185.299 127.487 182.902 128.182 180.661 129.244C178.473 130.469 176.744 132.778 177.018 135.239C177.127 136.202 177.532 137.11 177.62 138.073C177.699 138.549 177.624 139.039 177.406 139.47C177.187 139.901 176.837 140.251 176.405 140.468L171.964 135.731C163.396 140.605 153.694 143.133 143.837 143.061C142.984 141.661 144.155 139.921 145.292 138.74C147.218 136.727 149.231 134.812 151.331 132.996C155.379 129.496 159.744 126.345 163.365 122.385C166.472 118.939 168.944 114.946 172.215 111.653C177.401 106.445 184.249 103.349 190.704 99.7831C197.158 96.2167 203.558 91.7642 206.665 85.1018C207.989 82.2684 209.28 81.9292 212.31 81.9511C214.403 81.8478 216.502 81.9762 218.567 82.334C223.797 83.5702 228.96 85.9988 234.015 87.8149Z" fill="url(#paint4_linear)"/>
<path d="M230.962 96.9825C231.269 98.8969 230.393 100.779 229.474 102.452C228.254 105.06 226.395 107.318 224.07 109.016C219.519 111.926 213.546 110.69 208.295 111.948C204.564 112.856 201.075 115.066 197.235 114.924C200.578 113.521 203.747 111.733 206.676 109.596C208.976 107.859 210.789 105.556 211.938 102.912C212.955 100.418 212.561 97.5951 213.655 95.1446C215.471 91.0859 221.313 91.0749 225.055 91.8626C227.68 92.4534 230.557 94.1381 230.962 96.9825Z" fill="#E7D1D1"/>
<path d="M223.665 100.779C223.665 105.33 219.125 108.436 214.99 110.307C206.557 114.191 197.434 116.356 188.155 116.674C183.363 116.795 178.309 116.237 174.545 113.261C173.113 112.186 172.06 110.685 171.537 108.973C170.323 105.056 171.964 100.516 171.854 96.162C171.745 92.0705 171.854 87.4101 174.917 84.697C175.813 84.0526 176.632 83.3074 177.357 82.4762C177.878 81.7063 178.249 80.8453 178.451 79.9382C179.271 76.9735 180.07 74.0088 180.869 71.0441L183.757 73.232C184.955 71.3103 186.493 69.6234 188.297 68.2544C188.724 71.7004 192.804 73.1554 196.075 74.3041C200.152 75.8291 204.078 77.7298 207.803 79.9819L209.991 81.2509C211.807 82.3449 213.732 83.4389 214.695 85.3643C215.657 87.2897 215.045 90.0575 213.021 90.6702C217.922 92.519 223.676 95.604 223.665 100.779Z" fill="white"/>
<path d="M201.644 84.9814C202.561 84.4034 203.269 83.5462 203.662 82.5359C204.056 81.5257 204.116 80.4157 203.832 79.3693C203.662 78.8855 203.368 78.4551 202.978 78.1221C201.939 77.3235 200.44 77.6298 199.226 78.1221C196.83 79.0958 192.115 81.5135 193.034 84.7955C193.953 88.0774 199.74 86.3161 201.644 84.9814Z" fill="url(#paint5_linear)"/>
<path d="M192.99 86.7865C198.107 86.7865 202.256 82.638 202.256 77.5204C202.256 72.4029 198.107 68.2544 192.99 68.2544C187.872 68.2544 183.724 72.4029 183.724 77.5204C183.724 82.638 187.872 86.7865 192.99 86.7865Z" fill="#E7D1D1"/>
<path d="M192.99 86.7865C198.107 86.7865 202.256 82.638 202.256 77.5204C202.256 72.4029 198.107 68.2544 192.99 68.2544C187.872 68.2544 183.724 72.4029 183.724 77.5204C183.724 82.638 187.872 86.7865 192.99 86.7865Z" fill="url(#paint6_linear)"/>
<path d="M193.865 59.0211C194.391 56.1912 195.362 53.4625 196.742 50.9366C197.789 48.9143 199.202 47.1041 200.91 45.5979C204.192 42.863 208.492 41.7471 212.725 41.397C216.959 41.047 221.226 41.3423 225.459 41.047C223.632 43.5084 222.177 46.2215 220.46 48.7049C218.829 51.3119 216.573 53.4704 213.896 54.9843C211.247 56.2315 208.308 56.7309 205.396 56.4284C202.498 56.119 199.634 55.544 196.841 54.7108C195.675 58.9828 195.253 63.4236 195.594 67.8387C195.692 68.5045 195.67 69.1827 195.528 69.8407C195.244 70.8143 193.789 71.8645 193.067 70.5955C192.76 70.0595 193.285 68.4075 193.296 67.7293C193.231 64.8155 193.422 61.9017 193.865 59.0211Z" fill="#E7D1D1"/>
<path d="M193.865 59.0211C194.391 56.1912 195.362 53.4625 196.742 50.9366C197.789 48.9143 199.202 47.1041 200.91 45.5979C204.192 42.863 208.492 41.7471 212.725 41.397C216.959 41.047 221.226 41.3423 225.459 41.047C223.632 43.5084 222.177 46.2215 220.46 48.7049C218.829 51.3119 216.573 53.4704 213.896 54.9843C211.247 56.2315 208.308 56.7309 205.396 56.4284C202.498 56.119 199.634 55.544 196.841 54.7108C195.675 58.9828 195.253 63.4236 195.594 67.8387C195.692 68.5045 195.67 69.1827 195.528 69.8407C195.244 70.8143 193.789 71.8645 193.067 70.5955C192.76 70.0595 193.285 68.4075 193.296 67.7293C193.231 64.8155 193.422 61.9017 193.865 59.0211Z" fill="url(#paint7_linear)"/>
<path d="M161.33 153.651C161.31 154.591 161.548 155.518 162.019 156.331C162.269 156.725 162.664 157.005 163.119 157.109C163.574 157.214 164.051 157.134 164.448 156.889C164.722 156.562 164.911 156.172 164.999 155.754C165.087 155.336 165.07 154.903 164.951 154.493L163.999 146.835C163.864 146.16 163.945 145.46 164.229 144.833C164.563 144.355 165.02 143.977 165.553 143.739L170.06 141.267C170.313 141.092 170.617 141.003 170.924 141.015C171.179 141.08 171.406 141.226 171.57 141.431C173.047 143.05 172.937 145.807 174.71 147.098C174.957 147.319 175.271 147.451 175.602 147.472C175.933 147.494 176.262 147.405 176.537 147.218C176.767 146.973 176.92 146.664 176.974 146.332C177.806 142.952 176.526 138.904 178.768 136.246C178.199 136.935 176.219 137.394 175.388 137.755C174.152 138.302 172.915 138.849 171.668 139.353C169.141 140.447 166.57 141.376 163.945 142.186C162.982 142.481 161.089 142.613 160.324 143.28C159.23 144.221 160.061 144.265 160.564 145.369C161.56 147.667 161.166 151.179 161.33 153.651Z" fill="#E7D1D1"/>
<path opacity="0.43" d="M265.97 169.995C250.49 172.292 234.627 171.702 219.267 174.688C207.627 176.953 196.502 181.252 185.069 184.381C171.876 188.024 158.332 190.168 144.789 192.247C144.483 188.844 144.012 185.442 143.367 182.073C143.563 181.832 143.787 181.616 144.034 181.427C147.174 179.075 153.169 179.502 156.845 179.053C159.926 178.753 162.979 178.219 165.979 177.456C170.18 176.275 174.162 174.174 178.516 173.955H179.665C185.977 173.955 191.699 170.017 197.617 167.884C200.626 166.79 203.634 165.696 206.719 164.875C224.398 160.04 243.434 163.223 261.266 159.033C262.237 158.754 263.241 158.606 264.252 158.596C265.053 162.358 265.626 166.164 265.97 169.995Z" fill="#E7D1D1"/>
<path opacity="0.18" d="M223.665 100.779C223.665 105.33 219.125 108.436 214.99 110.307C206.557 114.191 197.434 116.356 188.155 116.674C183.363 116.795 178.309 116.237 174.545 113.261C173.113 112.186 172.06 110.685 171.537 108.973L178.341 112.55C179.502 113.257 180.781 113.749 182.116 114.005C182.784 114.126 183.472 114.07 184.111 113.841C184.751 113.613 185.319 113.22 185.759 112.703C186.349 111.915 186.557 110.799 187.4 110.285C187.991 110.012 188.648 109.917 189.292 110.012L205.089 110.843C205.853 110.938 206.629 110.871 207.365 110.646C208.129 110.292 208.797 109.759 209.312 109.093C211.449 106.691 213.37 104.107 215.056 101.369L210.68 99.6737C212.168 98.9188 211.478 96.3917 209.947 95.7572C208.415 95.1227 206.665 95.6697 205.057 96.1292C199.141 97.7872 192.914 98.0047 186.896 96.7637C190.43 96.1401 194.062 96.4464 197.65 96.2932C201.239 96.1401 204.969 95.4509 207.77 93.1863C205.975 93.3911 204.169 92.919 202.705 91.8626C205.691 90.9874 209.137 89.6746 209.892 86.6334C210.592 83.9093 208.798 81.8745 207.102 80.0694C207.313 80.0137 207.53 79.9807 207.748 79.971L209.936 81.24C211.752 82.334 213.677 83.428 214.64 85.3534C215.603 87.2788 214.99 90.0466 212.966 90.6592C217.922 92.519 223.676 95.604 223.665 100.779Z" fill="#E7D1D1"/>
<path d="M291.022 141.912C291.022 141.912 331.893 156.583 335.777 167.938L339.661 179.305L393.375 205.933L385.017 221.248L334.989 188.341C334.989 188.341 331.401 188.341 329.957 187.247C328.513 186.153 322.365 176.942 314.871 173.78C307.377 170.619 281.811 158.618 281.811 158.618L283.78 156.517L317.387 169.043L286.22 151.179L288.812 148.29L319.903 161.746L289.097 144.089L291.022 141.912Z" fill="#E7D1D1"/>
<path d="M291.022 141.912C291.022 141.912 331.893 156.583 335.777 167.938L339.661 179.305L393.375 205.933L385.017 221.248L334.989 188.341C334.989 188.341 331.401 188.341 329.957 187.247C328.513 186.153 322.365 176.942 314.871 173.78C307.377 170.619 281.811 158.618 281.811 158.618L283.78 156.517L317.387 169.043L286.22 151.179L288.812 148.29L319.903 161.746L289.097 144.089L291.022 141.912Z" fill="url(#paint8_linear)"/>
<path d="M291.022 141.912C291.022 141.912 333.25 155.937 337.134 167.14L341.017 178.331L394.732 204.587L386.374 219.684L336.357 187.236C336.357 187.236 332.758 187.236 331.324 186.142C329.891 185.048 323.721 175.99 316.227 172.872C308.734 169.754 283.167 157.961 283.167 157.961L283.78 156.528L318.689 168.267L287.587 150.653L288.812 148.334L321.26 161.079L290.453 143.63L291.022 141.912Z" fill="#E7D1D1"/>
<path opacity="0.37" d="M291.022 141.912C291.022 141.912 324.006 156.211 330.066 163.289C336.127 170.367 338.381 179.928 338.381 179.928L336.127 185.158L388.223 216.347L394.732 204.587L341.017 178.331L337.352 167.807C337.352 167.807 336.455 162.403 325.493 156.867C314.532 151.332 291.022 141.912 291.022 141.912Z" fill="white"/>
</g>
<defs>
<linearGradient id="paint0_linear" x1="223.293" y1="48.1032" x2="191.874" y2="285.268" gradientUnits="userSpaceOnUse">
<stop offset="0.01"/>
<stop offset="0.13" stop-opacity="0.69"/>
<stop offset="1" stop-opacity="0"/>
</linearGradient>
<linearGradient id="paint1_linear" x1="23092.7" y1="4808.81" x2="19649.5" y2="9147.3" gradientUnits="userSpaceOnUse">
<stop offset="0.01"/>
<stop offset="0.13" stop-opacity="0.69"/>
<stop offset="1" stop-opacity="0"/>
</linearGradient>
<linearGradient id="paint2_linear" x1="22797.7" y1="10463.4" x2="42593.4" y2="10463.4" gradientUnits="userSpaceOnUse">
<stop offset="0.01"/>
<stop offset="0.13" stop-opacity="0.69"/>
<stop offset="1" stop-opacity="0"/>
</linearGradient>
<linearGradient id="paint3_linear" x1="202.781" y1="116.379" x2="195.386" y2="266.069" gradientUnits="userSpaceOnUse">
<stop offset="0.01" stop-color="white"/>
<stop offset="0.13" stop-color="white" stop-opacity="0.69"/>
<stop offset="0.74" stop-color="white" stop-opacity="0.18"/>
<stop offset="1" stop-color="white" stop-opacity="0"/>
</linearGradient>
<linearGradient id="paint4_linear" x1="29437" y1="11784" x2="25205.7" y2="4344.62" gradientUnits="userSpaceOnUse">
<stop offset="0.01" stop-color="white"/>
<stop offset="0.13" stop-color="white" stop-opacity="0.69"/>
<stop offset="0.74" stop-color="white" stop-opacity="0.18"/>
<stop offset="1" stop-color="white" stop-opacity="0"/>
</linearGradient>
<linearGradient id="paint5_linear" x1="2380.19" y1="960.509" x2="2493.1" y2="960.509" gradientUnits="userSpaceOnUse">
<stop offset="0.01"/>
<stop offset="0.13" stop-opacity="0.69"/>
<stop offset="1" stop-opacity="0"/>
</linearGradient>
<linearGradient id="paint6_linear" x1="3255.98" y1="1268.95" x2="3569.73" y2="1268.95" gradientUnits="userSpaceOnUse">
<stop offset="0.01" stop-color="white"/>
<stop offset="0.13" stop-color="white" stop-opacity="0.69"/>
<stop offset="0.74" stop-color="white" stop-opacity="0.18"/>
<stop offset="1" stop-color="white" stop-opacity="0"/>
</linearGradient>
<linearGradient id="paint7_linear" x1="7657.58" y1="2397.77" x2="6452.58" y2="2075.05" gradientUnits="userSpaceOnUse">
<stop offset="0.01"/>
<stop offset="0.13" stop-opacity="0.69"/>
<stop offset="1" stop-opacity="0"/>
</linearGradient>
<linearGradient id="paint8_linear" x1="31350.3" y1="15103.9" x2="42727.7" y2="15103.9" gradientUnits="userSpaceOnUse">
<stop offset="0.01"/>
<stop offset="0.13" stop-opacity="0.69"/>
<stop offset="1" stop-opacity="0"/>
</linearGradient>
<clipPath id="clip0">
<rect width="406" height="306" fill="white"/>
</clipPath>
</defs>
</svg>
