<svg width="15" height="15" viewBox="0 0 15 15" fill="none" xmlns="http://www.w3.org/2000/svg">
<g clip-path="url(#clip0)">
<path d="M9.56906 5.43452C9.37503 5.43452 9.21777 5.59178 9.21777 5.78581V12.4251C9.21777 12.619 9.37503 12.7764 9.56906 12.7764C9.76309 12.7764 9.92035 12.619 9.92035 12.4251V5.78581C9.92035 5.59178 9.76309 5.43452 9.56906 5.43452Z" fill="#C4C4C4"/>
<path d="M5.4238 5.43452C5.22977 5.43452 5.07251 5.59178 5.07251 5.78581V12.4251C5.07251 12.619 5.22977 12.7764 5.4238 12.7764C5.61783 12.7764 5.77509 12.619 5.77509 12.4251V5.78581C5.77509 5.59178 5.61783 5.43452 5.4238 5.43452Z" fill="#C4C4C4"/>
<path d="M2.40274 4.46554V13.1205C2.40274 13.6321 2.59032 14.1125 2.91801 14.4572C3.24418 14.8028 3.69811 14.9991 4.17317 14.9999H10.8196C11.2948 14.9991 11.7488 14.8028 12.0748 14.4572C12.4025 14.1125 12.5901 13.6321 12.5901 13.1205V4.46554C13.2415 4.29264 13.6635 3.66334 13.5764 2.99493C13.4891 2.32667 12.9198 1.82677 12.2458 1.82663H10.4472V1.38752C10.4493 1.01826 10.3033 0.66368 10.0419 0.402822C9.78045 0.142101 9.42532 -0.00307953 9.05606 -6.06553e-05H5.93674C5.56748 -0.00307953 5.21235 0.142101 4.95094 0.402822C4.68954 0.66368 4.54353 1.01826 4.54559 1.38752V1.82663H2.74703C2.073 1.82677 1.50367 2.32667 1.41639 2.99493C1.32926 3.66334 1.75135 4.29264 2.40274 4.46554ZM10.8196 14.2973H4.17317C3.57255 14.2973 3.10532 13.7814 3.10532 13.1205V4.49641H11.8875V13.1205C11.8875 13.7814 11.4203 14.2973 10.8196 14.2973ZM5.24817 1.38752C5.24583 1.20461 5.31774 1.02855 5.44755 0.899426C5.57722 0.770301 5.75369 0.699357 5.93674 0.702513H9.05606C9.23912 0.699357 9.41558 0.770301 9.54526 0.899426C9.67507 1.02841 9.74697 1.20461 9.74464 1.38752V1.82663H5.24817V1.38752ZM2.74703 2.52921H12.2458C12.595 2.52921 12.8781 2.81229 12.8781 3.16152C12.8781 3.51075 12.595 3.79384 12.2458 3.79384H2.74703C2.3978 3.79384 2.11471 3.51075 2.11471 3.16152C2.11471 2.81229 2.3978 2.52921 2.74703 2.52921Z" fill="#C4C4C4"/>
<path d="M7.49643 5.43452C7.3024 5.43452 7.14514 5.59178 7.14514 5.78581V12.4251C7.14514 12.619 7.3024 12.7764 7.49643 12.7764C7.69046 12.7764 7.84771 12.619 7.84771 12.4251V5.78581C7.84771 5.59178 7.69046 5.43452 7.49643 5.43452Z" fill="#C4C4C4"/>
</g>
<defs>
<clipPath id="clip0">
<rect width="15" height="15" fill="white"/>
</clipPath>
</defs>
</svg>
